<svg width="512" height="512" viewBox="0 0 512 512" xmlns="http://www.w3.org/2000/svg">
  <defs>
    <linearGradient id="bgGradient" x1="0%" y1="0%" x2="100%" y2="100%">
      <stop offset="0%" style="stop-color:#06b6d4;stop-opacity:1" />
      <stop offset="100%" style="stop-color:#2563eb;stop-opacity:1" />
    </linearGradient>
  </defs>
  
  <!-- Rounded square background with gradient -->
  <rect width="512" height="512" rx="102" fill="url(#bgGradient)"/>
  
  <!-- Link icon (chain link) -->
  <g transform="translate(256, 256)">
    <!-- Left link -->
    <path d="M-80,-40 L-60,-60 C-50,-70 -30,-70 -20,-60 L0,-40 C10,-30 10,-10 0,0 L-20,20 C-30,30 -50,30 -60,20 L-80,0 C-90,-10 -90,-30 -80,-40 Z" 
          fill="white" opacity="0.9"/>
    
    <!-- Right link -->
    <path d="M0,40 L20,20 C30,10 50,10 60,20 L80,40 C90,50 90,70 80,80 L60,100 C50,110 30,110 20,100 L0,80 C-10,70 -10,50 0,40 Z" 
          fill="white"/>
    
    <!-- Connection bar -->
    <rect x="-30" y="-8" width="60" height="16" rx="8" fill="white" opacity="0.95"/>
  </g>
</svg>
